<svg width="14" height="16" viewBox="0 0 14 16" fill="none" xmlns="http://www.w3.org/2000/svg">
<path d="M9 0H4.5V1.5H9V0ZM6 9.75H7.5V5.25H6V9.75ZM12.0225 4.7925L13.0875 3.7275C12.765 3.345 12.4125 2.985 12.03 2.67L10.965 3.735C9.77056 2.77364 8.28327 2.24965 6.75 2.25C3.0225 2.25 0 5.2725 0 9C0 12.7275 3.015 15.75 6.75 15.75C8.02073 15.7507 9.26581 15.3924 10.3418 14.7165C11.4179 14.0405 12.2811 13.0744 12.8321 11.9293C13.3831 10.7842 13.5994 9.50682 13.4562 8.24419C13.3129 6.98156 12.816 5.78506 12.0225 4.7925ZM6.75 14.25C3.8475 14.25 1.5 11.9025 1.5 9C1.5 6.0975 3.8475 3.75 6.75 3.75C9.6525 3.75 12 6.0975 12 9C12 11.9025 9.6525 14.25 6.75 14.25Z" fill="#362525"/>
</svg>
